HIERARCHY
ROOT root
{
	OFFSET	0	13.1	24.9
	CHANNELS 6  Xposition Yposition Zposition Xrotation Yrotation Zrotation
	JOINT spine_1
	{
		OFFSET	0	9.99999	0
		CHANNELS 3  Xrotation Yrotation Zrotation
		JOINT spine_2
		{
			OFFSET	0	112	-10
			CHANNELS 3  Xrotation Yrotation Zrotation
			JOINT spine_3
			{
				OFFSET	0	206.5	19.3
				CHANNELS 3  Xrotation Yrotation Zrotation
				JOINT spine_4
				{
					OFFSET	0	110.4	14.6
					CHANNELS 3  Xrotation Yrotation Zrotation
					JOINT neck_1
					{
						OFFSET	0	71.8	-50.3
						CHANNELS 3  Xrotation Yrotation Zrotation
						JOINT neck_2
						{
							OFFSET	0	86.2	-25.8
							CHANNELS 3  Xrotation Yrotation Zrotation
							JOINT head_ee
							{
								OFFSET	0	179.8	-8.7
								CHANNELS 3  Xrotation Yrotation Zrotation
								End Site
								{
									OFFSET	1	0	0
								}
							}
						}
					}
					JOINT left_clavicle
					{
						OFFSET	-43.2	22.4	-70.8
						CHANNELS 3  Xrotation Yrotation Zrotation
						JOINT left_shoulder
						{
							OFFSET	-93.9	-5.79999	48.7
							CHANNELS 3  Xrotation Yrotation Zrotation
							JOINT left_elbow
							{
								OFFSET	-291.4	-30.8	15.2
								CHANNELS 3  Xrotation Yrotation Zrotation
								JOINT left_lowarm_twist
								{
									OFFSET	-110.7	-3.89999	13.6
									CHANNELS 3  Xrotation Yrotation Zrotation
									JOINT left_hand
									{
										OFFSET	-110.7	-3.89999	13.6
										CHANNELS 3  Xrotation Yrotation Zrotation
										JOINT left_ee
										{
											OFFSET	-80.8	-5.10001	12.1
											CHANNELS 3  Xrotation Yrotation Zrotation
											End Site
											{
												OFFSET	1	0	0
											}
										}
									}
								}
							}
						}
					}
					JOINT right_clavicle
					{
						OFFSET	43.2	22.4	-70.8
						CHANNELS 3  Xrotation Yrotation Zrotation
						JOINT right_shoulder
						{
							OFFSET	93.9	-5.79999	48.7
							CHANNELS 3  Xrotation Yrotation Zrotation
							JOINT right_elbow
							{
								OFFSET	291.4	-30.8	15.2
								CHANNELS 3  Xrotation Yrotation Zrotation
								JOINT right_lowarm_twist
								{
									OFFSET	110.7	-3.89999	13.6
									CHANNELS 3  Xrotation Yrotation Zrotation
									JOINT right_hand
									{
										OFFSET	110.7	-3.89999	13.6
										CHANNELS 3  Xrotation Yrotation Zrotation
										JOINT right_ee
										{
											OFFSET	80.8	-5.10001	12.1
											CHANNELS 3  Xrotation Yrotation Zrotation
											End Site
											{
												OFFSET	1	0	0
											}
										}
									}
								}
							}
						}
					}
				}
			}
		}
	}
	JOINT left_hip
	{
		OFFSET	-82.8	-127.5	0.300001
		CHANNELS 3  Xrotation Yrotation Zrotation
		JOINT left_knee
		{
			OFFSET	-28.2	-396.7	2.2
			CHANNELS 3  Xrotation Yrotation Zrotation
			JOINT left_ankle
			{
				OFFSET	-11.7	-411.3	35.4
				CHANNELS 3  Xrotation Yrotation Zrotation
				JOINT left_toes
				{
					OFFSET	0	-60	-88.6
					CHANNELS 3  Xrotation Yrotation Zrotation
					JOINT left_foot_ee
					{
						OFFSET	-22.5	-16.5	-42.2
						CHANNELS 3  Xrotation Yrotation Zrotation
						End Site
						{
							OFFSET	1	0	0
						}
					}
				}
			}
		}
	}
	JOINT right_hip
	{
		OFFSET	82.8	-127.5	0.300001
		CHANNELS 3  Xrotation Yrotation Zrotation
		JOINT right_knee
		{
			OFFSET	28.2	-396.7	2.2
			CHANNELS 3  Xrotation Yrotation Zrotation
			JOINT right_ankle
			{
				OFFSET	11.7	-411.3	35.4
				CHANNELS 3  Xrotation Yrotation Zrotation
				JOINT right_toes
				{
					OFFSET	0	-60	-88.6
					CHANNELS 3  Xrotation Yrotation Zrotation
					JOINT right_foot_ee
					{
						OFFSET	22.5	-16.5	-42.2
						CHANNELS 3  Xrotation Yrotation Zrotation
						End Site
						{
							OFFSET	1	0	0
						}
					}
				}
			}
		}
	}
}
MOTION
Frames: 6
Frame Time: 0.02
1097.71471088 712.364 -1792.17884614 2.9613325949 42.8015105386 -2.51674547097 0.561364 0.0421708 0.715248 0.561649 -0.00342654 0.716482 0.561691 -0.147078 0.701233 0.561007 -0.0344882 0.715659 0.434854 10.1529 -1.21352 0.73996 19.0484 -0.333492 -0.0 0.0 -0.0 8.63748 10.2613 16.3189 -36.5595 -7.11646 53.988 0.572951 -15.8453 0.0797351 -13.7778 -0.683788 1.61929 -0.0354945 13.4694 5.31192 -0.0 0.0 -0.0 11.773 8.26801 -23.7506 -9.93625 29.9569 -53.4671 0.856789 22.9975 -0.1743 65.0337 2.24198 7.55215 0.166227 -4.10939 -2.81775 0.0 0.0 0.0 15.3386 -14.5668 -0.386333 -54.91 -1.67615 7.94131 29.7503 25.192 -4.08309 16.1233 -0.0 -0.0 -0.0 0.0 -0.0 2.17301 -0.216867 -4.50011 -10.2972 -0.285108 -1.55245 41.4336 -7.06124 4.98351 3.95513 -0.0 -0.0 0.0 0.0 0.0 
1092.22606534 727.983 -1804.30476232 3.09278576993 42.8091598539 -1.62581379949 0.246431 0.000244286 0.619566 0.246644 -0.03918 0.618326 0.24629 -0.165704 0.596997 0.2458 -0.0693422 0.615674 -0.355131 9.8498 -1.79673 -0.0672621 19.0644 -0.877035 -0.0 0.0 -0.0 8.56755 10.7919 16.149 -37.1107 -6.96835 54.1981 0.54447 -15.0945 0.0721382 -13.2944 -0.653292 1.56547 -0.0306027 14.3544 5.69444 -0.0 0.0 -0.0 11.6941 7.98725 -23.5702 -9.37627 29.7629 -53.579 0.946642 25.1233 -0.210939 65.3237 2.27012 7.57648 0.375008 -1.86198 -3.27542 0.0 0.0 0.0 18.014 -13.6774 -1.35439 -55.2108 -1.70563 7.97708 29.6465 25.3561 -4.07503 15.5839 -0.0 -0.0 -0.0 0.0 -0.0 0.38763 -0.766632 -4.14146 -8.18848 -0.249537 -1.23084 40.9018 -7.11346 4.93876 5.35854 -0.0 -0.0 0.0 0.0 0.0 
1082.04269145 715.502 -1820.50920268 3.46178031834 43.4608038629 -1.24420195509 0.155551 -0.00769568 0.535566 0.15571 -0.041759 0.533991 0.155374 -0.151671 0.513699 0.155012 -0.0686392 0.531205 -0.829177 9.45621 -3.10293 -0.514612 19.4507 -2.25146 -0.0 0.0 -0.0 8.49018 10.5288 16.0301 -37.5449 -6.81859 53.6246 0.479649 -13.3661 0.056202 -12.0646 -0.577761 1.42741 0.273602 14.8153 7.77895 -0.0 0.0 -0.0 11.6335 7.80824 -23.4323 -7.01568 29.955 -53.7077 1.18469 30.4059 -0.321949 65.5492 2.29208 7.59529 0.392168 -0.23433 -2.71702 0.0 0.0 0.0 20.7601 -10.0873 -1.33265 -57.722 -1.9591 8.26971 29.3338 24.2487 -4.01252 15.7099 -0.0 -0.0 -0.0 0.0 -0.0 -2.0524 -1.20132 -6.92002 -6.6902 -0.21708 -1.00322 40.7515 -3.9532 4.92284 7.79211 -0.0 -0.0 0.0 0.0 0.0 
1056.30782629 707.551 -1822.56385534 3.71601878216 46.4681031262 -1.78189876145 0.0537232 0.000585102 0.608415 0.0539283 -0.0381304 0.60722 0.0536004 -0.16436 0.585795 0.0531286 -0.0697839 0.6044 -1.17912 9.15499 -4.03177 -0.842934 19.6749 -3.22421 -0.0 0.0 -0.0 8.23959 10.3208 15.5919 -37.8718 -6.68695 53.1853 0.455762 -12.7226 0.0508107 -11.2195 -0.527592 1.33162 0.56891 15.1076 9.74358 -0.0 0.0 -0.0 11.3841 7.17816 -22.8684 -5.84622 29.0084 -52.9165 1.34671 33.7063 -0.407976 65.9904 2.33527 7.63187 0.476072 1.44532 -2.58076 0.0 0.0 0.0 20.9546 -8.05046 -2.77242 -53.8516 -1.5739 7.81421 27.3117 22.3299 -3.73631 15.6547 -0.0 -0.0 -0.0 0.0 -0.0 -3.73949 -1.4384 -8.06284 -6.15995 -0.204168 -0.92287 40.1064 -2.05709 4.87316 9.70717 -0.0 -0.0 0.0 0.0 0.0 
1030.7388812 705.19 -1847.50472583 6.00908815381 46.4717971683 -1.5017780501 -0.318198 0.267149 0.277761 -0.318189 0.248933 0.294198 -0.316865 0.17966 0.340943 -0.316952 0.231251 0.30829 -1.31256 7.8854 -6.27294 -0.902468 19.1832 -5.75349 -0.0 0.0 -0.0 7.70457 9.85712 14.6542 -38.0351 -6.54656 52.943 0.504756 -14.0387 0.0621495 -7.52129 -0.324917 0.904269 1.79113 10.4338 15.989 -0.0 0.0 -0.0 11.058 5.80359 -22.1222 -5.29449 27.546 -52.32 1.55435 37.5929 -0.529066 67.1702 2.45215 7.72803 0.626988 4.32965 -2.3895 0.0 0.0 0.0 23.6755 -15.4766 -2.73281 -48.48 -1.09239 7.14175 24.1663 25.9437 -3.42319 14.7217 -0.0 -0.0 -0.0 0.0 -0.0 -5.34862 4.16908 -8.27388 -10.13 -0.28272 -1.52691 40.568 1.27224 4.9349 14.8772 -0.0 -0.0 0.0 0.0 0.0 
1021.89572496 699.721 -1859.41588151 5.5202642725 46.450140875 -0.626164931575 -0.303581 0.32854 0.191841 -0.303616 0.315667 0.212359 -0.302426 0.262537 0.275348 -0.302404 0.302728 0.230429 -1.1818 6.93014 -7.27385 -0.741269 18.2676 -6.96249 -0.0 0.0 -0.0 7.5234 9.72657 14.3341 -38.0616 -6.45435 53.0874 0.521825 -14.4937 0.0663557 -6.01132 -0.250187 0.726226 2.28242 7.97016 18.4474 -0.0 0.0 -0.0 10.8771 5.45137 -21.7195 -4.99985 26.8694 -51.4464 1.6176 38.7026 -0.568134 67.7848 2.5138 7.77717 0.67423 5.41813 -2.25005 0.0 0.0 0.0 24.9879 -18.7641 -2.96214 -44.6531 -0.789014 6.63703 21.7393 27.8288 -3.14968 13.4742 -0.0 -0.0 -0.0 0.0 -0.0 -5.92656 7.15761 -8.1645 -11.0801 -0.295297 -1.67214 40.3549 2.5785 4.93018 16.7073 -0.0 -0.0 0.0 0.0 0.0 
